<?xml version="1.0" encoding="utf-8"?>
<!-- Generator: Adobe Illustrator 22.0.1, SVG Export Plug-In . SVG Version: 6.00 Build 0)  -->
<svg version="1.1" id="Слой_1" xmlns="http://www.w3.org/2000/svg" xmlns:xlink="http://www.w3.org/1999/xlink" x="0px" y="0px"
	 viewBox="0 0 51 50" style="enable-background:new 0 0 51 50;" xml:space="preserve">
<style type="text/css">
	.st0{fill:#191411;}
</style>
<g id="Logo">
	<g id="LOGO">
		<path class="st0" d="M23.2,0.1C14.8,0.7,7.6,4.6,3.8,10.5c-1,1.5-1.6,3-2.1,4.9c-0.3,1.2-0.3,1.9,0,2.6l0.2,0.5l-0.2,0.6
			c-0.2,0.5-0.2,0.8-0.2,1.4c0.1,1.3,0.7,2.3,1.8,3.1l0.4,0.2v2.6l-0.6,0.3c-0.8,0.4-1.8,1.4-2.2,2.2c-0.9,1.9-0.7,4.2,0.6,5.6
			l0.4,0.4l-0.2,0.6c-0.4,1.2-0.2,2.4,0.5,3.4l0.3,0.5v2.1c0,2.5,0.1,3.2,0.8,4.5c1,2.1,3,3.5,5.4,3.7c1.2,0.1,32.6,0.1,33.8,0
			c1.7-0.2,3-0.8,4.2-2.1c0.6-0.6,0.8-0.9,1.2-1.7c0.6-1.3,0.8-2,0.8-4.3V40l0.3-0.2c1.1-1.1,1.5-3,0.9-4.4l-0.3-0.6l0.3-0.3
			c1.1-1.5,1.3-3.7,0.5-5.4c-0.4-0.9-1.4-1.8-2.2-2.2l-0.6-0.3l0-2.4l0.5-0.3c0.7-0.4,1.5-1.2,1.8-1.9c0.2-0.5,0.3-0.7,0.3-1.6
			c0-0.9,0-1-0.3-1.7c-0.3-0.6-0.3-0.7-0.2-1c0.3-0.7,0-2.3-0.7-4.1c-1.7-4.8-6.3-9.1-11.9-11.4C32.6,0.5,27.9-0.3,23.2,0.1z
			 M27.7,2.1c9.8,0.8,17.8,6.3,19.7,13.7c0.2,0.9,0.2,1.3,0,1.7c-0.3,0.6,1.4,0.6-21.9,0.6c-23.3,0-21.6,0-21.9-0.6
			c-0.2-0.4-0.2-0.8,0-1.7c1-3.9,3.7-7.4,7.8-10C15.9,3,21.9,1.6,27.7,2.1z M24.4,4c-0.7,0.6-0.2,1.7,0.7,1.7c0.4,0,0.9-0.5,0.9-0.9
			c0-0.3-0.2-0.8-0.5-0.9C25.2,3.7,24.7,3.7,24.4,4z M29.1,4.4c-0.6,0.3-0.8,1.1-0.3,1.5c0.2,0.2,0.5,0.3,1.6,0.5
			c5.8,1.2,10.3,4.2,12.4,8.2c0.5,1.1,0.7,1.2,1.2,1.2c0.5,0,1-0.5,1-1c0-0.3-1.1-2.3-1.7-3.2c-0.9-1.1-2.7-2.8-3.9-3.7
			c-2.5-1.7-5.4-2.9-8.5-3.5C29.5,4.3,29.4,4.3,29.1,4.4z M15.3,8.8c-0.5,0.3-0.6,1-0.2,1.5c0.5,0.5,1.1,0.4,1.5-0.1
			c0.3-0.4,0.3-0.9-0.1-1.3C16.1,8.6,15.8,8.6,15.3,8.8z M22.8,9c-0.3,0.2-0.3,0.4-0.3,0.7c0,1,1.3,1.3,1.8,0.5
			c0.3-0.5,0.1-1.1-0.3-1.3C23.5,8.6,23.2,8.6,22.8,9z M10.7,12.5c-0.9,0.4-0.6,1.8,0.4,1.8c0.5,0,0.9-0.4,0.9-0.9
			c0-0.5-0.1-0.7-0.5-0.9C11.1,12.3,11.1,12.3,10.7,12.5z M20.5,12.5c-0.9,0.4-0.6,1.8,0.4,1.8c0.5,0,0.9-0.4,0.9-0.9
			c0-0.5-0.1-0.7-0.5-0.9C20.9,12.3,20.9,12.3,20.5,12.5z M27.4,13.2c-0.3,0.2-0.5,0.7-0.4,1c0.1,0.3,0.6,0.8,0.9,0.8
			c0.5,0,1-0.4,1-1c0-0.4-0.1-0.7-0.5-0.9C28,13,27.7,13,27.4,13.2z M48.1,20.3c0,0.2-0.1,0.5-0.1,0.7c-0.5,1.1-1.7,1.5-3.3,1
			c-0.5-0.2-0.9-0.2-1.6-0.2c-1.4,0-2,0.2-3.5,1.2c-0.8,0.6-1.4,0.8-2.2,0.8c-0.8,0-1.4-0.2-2.1-0.7c-1.5-1-2.3-1.3-3.7-1.3
			c-1.4,0-2.2,0.3-3.5,1.1c-0.9,0.6-1.6,0.8-2.3,0.9c-0.9,0-1.3-0.1-2.2-0.7c-1.6-1-2.2-1.2-3.7-1.2c-1.3,0-2,0.2-3.2,1
			c-1.2,0.8-1.7,1-2.6,1c-0.8,0-1.4-0.2-2.2-0.8c-0.8-0.6-1.7-1-2.3-1.1c-0.9-0.2-2.1-0.1-3.1,0.2c-1,0.3-1.5,0.3-2.1,0
			c-0.7-0.4-1.1-1-1.1-1.8c0-0.5,0-0.5,0.2-0.4c0.1,0,9.9,0.1,21.8,0.1c20.2,0,21.6,0,22.1-0.1C48,19.6,48.1,19.7,48.1,20.3z
			 M21.5,24.1c0.2,0.1,0.8,0.4,1.2,0.7c1,0.7,1.7,0.9,2.8,1c1.5,0.1,2.4-0.2,3.7-1.1c1-0.7,1.5-0.9,2.4-0.9c1,0,1.4,0.2,2.6,0.9
			c1.2,0.7,1.8,1,2.9,1c1.5,0.1,2.4-0.2,3.9-1.2c1.2-0.8,2.3-1,3.6-0.6c0.4,0.1,0.7,0.2,0.8,0.2c0.2,0,0.2,0.1,0.2,1v1H5.6v-1.9
			L6,24.3c0.2,0,0.7-0.2,1-0.3c0.8-0.2,1.9-0.2,2.5,0c0.2,0.1,0.8,0.4,1.4,0.8c1.2,0.7,1.8,1,2.9,1c1.5,0.1,2.4-0.2,3.8-1.2
			c0.3-0.2,0.7-0.5,0.9-0.6C19.4,23.7,20.7,23.8,21.5,24.1z M11,31c2.8,2.8,2.8,2.8,3.2,2.8c0.4,0,0.5-0.1,1.9-1.5
			c0.8-0.8,1.5-1.5,1.6-1.5c0.1,0,3.6,3.5,3.6,3.6c0,0-3.8,0.1-8.4,0c-9.4,0-8.8,0-9.7-0.8c-1.9-1.6-1.1-4.9,1.3-5.4
			c0.3-0.1,1.3-0.1,2.1-0.1l1.5,0L11,31z M16.4,29.4l-2.1,2.1L11,28.2h4.2L16.4,29.4z M30,32.2c-2.2,2.2-4,4-4,4s-1.8-1.8-4-4l-4-4
			h16L30,32.2z M46.3,28.3c1.6,0.3,2.6,1.7,2.5,3.3c-0.1,1.5-1.1,2.5-2.6,2.8c-0.6,0.1-15.6,0.1-15.6,0c0,0,1.4-1.4,3.1-3.2l3.1-3.1
			l4.4,0C44.1,28.2,45.9,28.2,46.3,28.3z M48,36.2c0.3,0.8,0,1.7-0.8,2.2c-0.6,0.4-1.4,0.5-2.4,0.2c-1.9-0.6-3.4-0.3-5.2,0.9
			c-1,0.7-1.4,0.8-2.3,0.8c-1,0-1.4-0.1-2.4-0.8c-1.4-1-2.8-1.3-4.2-1.1c-0.9,0.1-1.6,0.4-2.8,1.2c-0.8,0.5-1,0.6-1.6,0.7
			c-1.1,0.2-1.7,0-3-0.8c-1.2-0.8-2-1.1-3-1.2c-1.4-0.1-2.6,0.2-3.9,1.2c-1,0.7-1.4,0.8-2.4,0.8c-0.9,0-1.4-0.1-2.3-0.8
			c-1.8-1.2-3.3-1.5-5.1-0.9c-1.8,0.5-3.2-0.2-3.2-1.7c0-0.8,0-0.9,0.6-0.7c0.3,0.1,2.4,0.1,9.9,0.2l9.5,0l1,1
			c1.4,1.4,1.6,1.4,3.1-0.1l0.9-0.9l8.6,0c8.4,0,9.6,0,10.4-0.3C47.9,36,47.9,36,48,36.2z M9.3,40.5c0.4,0.1,0.9,0.3,1.4,0.7
			c1.5,1,2.6,1.3,3.9,1.2c1-0.1,1.8-0.4,3-1.1c0.8-0.5,1.2-0.7,1.7-0.8c1.1-0.2,2,0,3.1,0.8c2.3,1.6,4.5,1.6,6.8,0
			c1.2-0.8,2-1,3.1-0.8c0.5,0.1,0.8,0.3,1.6,0.7c1.7,1.1,2.7,1.4,4.2,1.2c1-0.1,1.5-0.4,2.7-1.1c1.4-0.9,2.2-1,3.6-0.6
			c0.6,0.2,1.1,0.2,1.5,0.2h0.7v1.4c0,0.9,0,1.6-0.1,2c-0.4,1.7-1.7,3.1-3.5,3.6C42.5,48,41.7,48,25.5,48C9.4,48,8.6,48,8,47.8
			c-1.7-0.5-3-1.9-3.5-3.6c-0.1-0.4-0.1-1.1-0.1-2v-1.5l0.3,0.1c0.6,0.1,1.7,0.1,2.5-0.2C8,40.3,8.5,40.3,9.3,40.5z"/>
	</g>
</g>
</svg>
